<svg id="Capa_1" data-name="Capa 1" xmlns="http://www.w3.org/2000/svg" viewBox="0 0 616.74 616.74"><path d="M1091.55,350a115.59,115.59,0,0,1,30.19-33.66c5.46-4.19,13.73-9.19,19.86-11.37a56.4,56.4,0,0,1,10.26-2.58,33.32,33.32,0,0,1,10.31.51c8.23,1.94,14.26,7.15,20.24,13.86,2.9,3.24-1.12-2.27.39.53.24.46.55.88.8,1.33.71,1.24,1.23,2.56,1.87,3.82-1.65-3.25.16.54.62,1.88.62,1.79,1.18,3.61,1.69,5.44,1.11,4,2,8,2.85,12,1,4.74,1.79,9.52,2.52,14.31.2,1.3.4,2.61.58,3.91.1.7.68,5,.3,2.13q.57,4.23,1,8.48c1.5,12.95,2.58,25.95,3.42,39,1.93,29.76,2.63,59.6,2.52,89.41-.12,30.5-1.1,61-3.32,91.43-1,13.88-2.3,27.75-4,41.56-.17,1.42-.36,2.84-.54,4.27-.37,2.83.29-2.12-.1.69-.07.55-.15,1.1-.23,1.65q-.67,4.83-1.45,9.64-1.3,8.14-3,16.23a171,171,0,0,1-7.22,26.12c-.33.85-.68,1.68-1,2.53,1.28-3.32.23-.55-.12.17-.74,1.52-1.48,3-2.35,4.48-.63,1.06-1.44,2-2,3.08,1.88-3.26-.38,0-1.22,1-1.2,1.49,2.16-1.65.68-.54a4.76,4.76,0,0,1-1.25.73c-1.53.51,3-1.23.87-.42-.94.36-3,0,.29,0-1.84,0-3.64.22-5.5.1-.88-.05-3.92-.63-.52,0-1.1-.21-2.21-.37-3.3-.61a59,59,0,0,1-6.4-1.8c-1-.34-2-.71-3-1.1l-1.88-.75c2.5,1,.41.17-.15-.1a156.88,156.88,0,0,1-15.76-8.45c-28-17.14-52-39.25-76.61-61.91-36.31-33.4-71.33-68.18-106.56-102.71q-15.3-15-30.62-30c-9.22-9-23.37,5.13-14.14,14.14,39.22,38.28,78,77,117.87,114.65,27.93,26.4,56.34,53,87.9,75.12,10.86,7.59,22.23,14.46,34.63,19.25,8.7,3.36,19.37,5.87,28.65,3.46,15.09-3.92,20.93-23.45,24.58-36.54,6.68-24,9.52-49.26,11.87-74,2.93-30.91,4.31-62,4.81-93,.52-31.86.08-63.75-1.6-95.57-1.38-26-3.42-52.19-7.9-77.9a157.68,157.68,0,0,0-6.1-25.36c-3.86-11-10.17-19.17-19.62-26.28-33.75-25.4-75,2.31-97.87,29.07a128.13,128.13,0,0,0-13.46,18.54c-6.46,11.16,10.82,21.24,17.27,10.09Z" transform="translate(-705.62 -198.8)" style="fill:#2980b9"/><path d="M938.16,659.16A115.59,115.59,0,0,1,908,692.83c-5.46,4.18-13.74,9.18-19.87,11.37a57.82,57.82,0,0,1-10.25,2.58,33.63,33.63,0,0,1-10.31-.51c-8.24-1.94-14.26-7.15-20.25-13.86-2.89-3.24,1.13,2.27-.38-.54-.24-.45-.55-.88-.81-1.32-.71-1.24-1.22-2.56-1.86-3.83,1.64,3.26-.16-.53-.63-1.87-.62-1.8-1.17-3.61-1.68-5.44-1.12-3.95-2-7.95-2.85-12-1-4.75-1.79-9.52-2.53-14.31-.2-1.31-.39-2.61-.58-3.92-.1-.69-.67-5-.3-2.12-.37-2.83-.72-5.65-1-8.48-1.5-13-2.58-26-3.42-39-1.92-29.75-2.62-59.59-2.51-89.4.12-30.5,1.09-61,3.32-91.44,1-13.88,2.3-27.74,4-41.55.18-1.43.36-2.85.55-4.27.37-2.83-.3,2.11.09-.69.08-.55.16-1.1.23-1.66.46-3.21.94-6.43,1.46-9.63.87-5.43,1.84-10.84,3-16.23a170.27,170.27,0,0,1,7.22-26.13c.32-.84.68-1.67,1-2.52-1.28,3.32-.23.55.12-.17.74-1.52,1.48-3,2.34-4.49.63-1,1.44-2,2.05-3.07-1.87,3.26.38,0,1.23-1,1.2-1.5-2.16,1.65-.69.54a5,5,0,0,1,1.26-.73c1.53-.51-3,1.23-.88.42,1-.37,3,0-.28,0,1.84,0,3.64-.22,5.49-.11.89.06,3.92.64.52,0,1.1.21,2.21.37,3.31.61a58.94,58.94,0,0,1,6.4,1.79c1,.35,2,.72,3.05,1.11.63.24,1.25.5,1.87.75-2.49-1-.41-.17.16.09a153.75,153.75,0,0,1,15.75,8.46c28,17.14,52,39.25,76.62,61.91,36.3,33.4,71.33,68.18,106.56,102.71q15.29,15,30.62,30c9.21,9,23.37-5.13,14.14-14.14-39.23-38.28-78-77-117.87-114.65-27.93-26.4-56.34-53-87.9-75.12-10.86-7.59-22.24-14.47-34.63-19.25-8.7-3.36-19.38-5.88-28.65-3.46-15.09,3.92-20.94,23.45-24.58,36.54-6.69,24-9.52,49.25-11.87,74-2.93,30.91-4.31,62-4.81,93-.52,31.85-.09,63.75,1.6,95.57,1.38,26,3.42,52.19,7.9,77.89a157.14,157.14,0,0,0,6.09,25.36c3.86,11,10.18,19.18,19.63,26.29,33.74,25.39,75-2.31,97.86-29.08a126,126,0,0,0,13.46-18.53c6.46-11.16-10.81-21.24-17.27-10.1Z" transform="translate(-705.62 -198.8)" style="fill:#2980b9"/><circle cx="308.37" cy="308.37" r="303.37" style="fill:none;stroke:#2980b9;stroke-miterlimit:10;stroke-width:10px"/></svg>